<?xml version='1.0' encoding='utf-8'?>
<svg xmlns="http://www.w3.org/2000/svg" data-name="Layer 1" viewBox="0 0 265.16 265.16"> <defs> <style>.cls-1{fill:#fff;}</style> </defs> <path class="cls-1" d="M237.8,12.63H27.36A14.75,14.75,0,0,0,12.63,27.36V237.8a14.75,14.75,0,0,0,14.73,14.73H237.8a14.75,14.75,0,0,0,14.73-14.73V27.36A14.75,14.75,0,0,0,237.8,12.63ZM132.46,218.16C77.67,174.48,29.4,129.57,39.6,85.64,45.27,61.22,63.26,48.7,84.21,47.31c1.46-.09,2.88-.14,4.27-.14,21.07,0,35.51,10.76,44,27.35C140.56,58.62,154.73,47,174.65,47a55.45,55.45,0,0,1,5.81.32c22.91,2.48,39.57,15.54,44.86,36.16h0C236.18,125.73,190.72,174.77,132.46,218.16Z"/> <path d="M237.8,0H27.36A27.39,27.39,0,0,0,0,27.36V237.8a27.39,27.39,0,0,0,27.36,27.36H237.8a27.39,27.39,0,0,0,27.36-27.36V27.36A27.39,27.39,0,0,0,237.8,0Zm14.73,237.8a14.75,14.75,0,0,1-14.73,14.73H27.36A14.75,14.75,0,0,1,12.63,237.8V27.36A14.75,14.75,0,0,1,27.36,12.63H237.8a14.75,14.75,0,0,1,14.73,14.73Z"/> <path d="M225.32,83.47C220,62.85,203.37,49.79,180.46,47.31a55.45,55.45,0,0,0-5.81-.32c-19.92,0-34.09,11.63-42.19,27.53-8.47-16.59-22.91-27.35-44-27.35-1.39,0-2.81,0-4.27.14C63.26,48.7,45.27,61.22,39.6,85.64c-10.2,43.93,38.07,88.84,92.86,132.52,58.26-43.39,103.72-92.43,92.86-134.7Z"/> </svg>